<svg version="1.1" xmlns="http://www.w3.org/2000/svg" x="0" y="0" viewBox="0 0 2100 650" width="800" fill="#fff">
    <path d="M580,320 C580,463.594 463.594,580 320,580 C176.406,580 60,463.594 60,320 C60,176.406 176.406,60 320,60 C463.594,60 580,176.406 580,320 z" />
    <path d="M687.5,320 C687.5,463.594 567.736,580 420,580 C272.264,580 152.5,463.594 152.5,320 C152.5,176.406 272.264,60 420,60 C567.736,60 687.5,176.406 687.5,320 z" fill="#000" />
    <path d="M979.033,417.88 L940.783,417.88 L940.783,322.255 Q940.783,318.317 939.306,314.802 Q937.83,311.286 935.158,308.614 Q932.486,305.942 928.971,304.466 Q925.455,302.989 921.517,302.989 Q917.58,302.989 914.135,304.466 Q910.689,305.942 908.088,308.614 Q905.486,311.286 904.01,314.802 Q902.533,318.317 902.533,322.255 L902.533,417.88 L864.142,417.88 L864.142,322.255 Q864.142,318.317 862.666,314.802 Q861.189,311.286 858.517,308.614 Q855.846,305.942 852.33,304.466 Q848.814,302.989 844.877,302.989 Q840.939,302.989 837.494,304.466 Q834.049,305.942 831.447,308.614 Q828.846,311.286 827.369,314.802 Q825.892,318.317 825.892,322.255 L825.892,417.88 L787.502,417.88 L787.502,267.27 L796.783,267.27 L807.189,278.802 Q815.205,272.052 824.838,268.325 Q834.471,264.598 844.877,264.598 Q855.424,264.598 865.478,268.536 Q875.533,272.473 883.127,282.177 Q886.642,277.395 891.142,274.02 Q895.642,270.645 900.635,268.536 Q905.627,266.427 910.971,265.513 Q916.314,264.598 921.517,264.598 Q933.471,264.598 943.947,269.098 Q954.424,273.598 962.228,281.403 Q970.033,289.208 974.533,299.755 Q979.033,310.302 979.033,322.255 z" />
    <path d="M1152.564,341.239 Q1152.564,358.114 1146.517,372.669 Q1140.471,387.223 1130.064,397.841 Q1119.658,408.458 1105.666,414.575 Q1091.674,420.692 1075.642,420.692 Q1059.752,420.692 1045.76,414.575 Q1031.767,408.458 1021.291,397.841 Q1010.814,387.223 1004.767,372.669 Q998.721,358.114 998.721,341.239 Q998.721,324.083 1004.767,309.458 Q1010.814,294.833 1021.291,284.216 Q1031.767,273.598 1045.76,267.552 Q1059.752,261.505 1075.642,261.505 Q1091.674,261.505 1105.666,267.2 Q1119.658,272.895 1130.064,283.372 Q1140.471,293.848 1146.517,308.544 Q1152.564,323.239 1152.564,341.239 z M1113.892,341.239 Q1113.892,331.958 1110.869,324.434 Q1107.846,316.911 1102.642,311.497 Q1097.439,306.083 1090.478,303.2 Q1083.517,300.317 1075.642,300.317 Q1067.767,300.317 1060.807,303.2 Q1053.846,306.083 1048.713,311.497 Q1043.58,316.911 1040.627,324.434 Q1037.674,331.958 1037.674,341.239 Q1037.674,349.958 1040.627,357.411 Q1043.58,364.864 1048.713,370.348 Q1053.846,375.833 1060.807,378.997 Q1067.767,382.161 1075.642,382.161 Q1083.517,382.161 1090.478,379.208 Q1097.439,376.255 1102.642,370.911 Q1107.846,365.567 1110.869,357.973 Q1113.892,350.38 1113.892,341.239 z" />
    <path d="M1365.33,417.88 L1327.08,417.88 L1327.08,322.255 Q1327.08,318.317 1325.603,314.802 Q1324.127,311.286 1321.455,308.614 Q1318.783,305.942 1315.267,304.466 Q1311.752,302.989 1307.814,302.989 Q1303.877,302.989 1300.432,304.466 Q1296.986,305.942 1294.385,308.614 Q1291.783,311.286 1290.307,314.802 Q1288.83,318.317 1288.83,322.255 L1288.83,417.88 L1250.439,417.88 L1250.439,322.255 Q1250.439,318.317 1248.963,314.802 Q1247.486,311.286 1244.814,308.614 Q1242.142,305.942 1238.627,304.466 Q1235.111,302.989 1231.174,302.989 Q1227.236,302.989 1223.791,304.466 Q1220.346,305.942 1217.744,308.614 Q1215.142,311.286 1213.666,314.802 Q1212.189,318.317 1212.189,322.255 L1212.189,417.88 L1173.799,417.88 L1173.799,267.27 L1183.08,267.27 L1193.486,278.802 Q1201.502,272.052 1211.135,268.325 Q1220.767,264.598 1231.174,264.598 Q1241.721,264.598 1251.775,268.536 Q1261.83,272.473 1269.424,282.177 Q1272.939,277.395 1277.439,274.02 Q1281.939,270.645 1286.932,268.536 Q1291.924,266.427 1297.267,265.513 Q1302.611,264.598 1307.814,264.598 Q1319.767,264.598 1330.244,269.098 Q1340.721,273.598 1348.525,281.403 Q1356.33,289.208 1360.83,299.755 Q1365.33,310.302 1365.33,322.255 z" />
    <path d="M1431.705,417.88 L1393.314,417.88 L1393.314,267.27 L1402.596,267.27 L1415.252,281.895 Q1424.533,273.458 1436.275,268.888 Q1448.017,264.317 1460.814,264.317 Q1474.596,264.317 1486.83,269.591 Q1499.064,274.864 1508.205,284.075 Q1517.346,293.286 1522.619,305.591 Q1527.892,317.895 1527.892,331.817 L1527.892,417.88 L1489.502,417.88 L1489.502,331.817 Q1489.502,325.911 1487.252,320.638 Q1485.002,315.364 1481.064,311.427 Q1477.127,307.489 1471.924,305.239 Q1466.721,302.989 1460.814,302.989 Q1454.767,302.989 1449.424,305.239 Q1444.08,307.489 1440.142,311.427 Q1436.205,315.364 1433.955,320.638 Q1431.705,325.911 1431.705,331.817 z" />
    <path d="M1628.721,417.88 Q1614.799,417.88 1602.564,412.606 Q1590.33,407.333 1581.119,398.122 Q1571.908,388.911 1566.635,376.677 Q1561.361,364.442 1561.361,350.52 L1561.361,305.802 L1542.658,305.802 L1542.658,267.552 L1561.361,267.552 L1561.361,207.364 L1599.611,207.364 L1599.611,267.552 L1657.83,267.552 L1657.83,305.802 L1599.611,305.802 L1599.611,350.52 Q1599.611,356.567 1601.861,361.841 Q1604.111,367.114 1608.049,371.052 Q1611.986,374.989 1617.33,377.309 Q1622.674,379.63 1628.721,379.63 L1657.83,379.63 L1657.83,417.88 z" />
    <path d="M1870.877,417.88 L1832.627,417.88 L1832.627,322.255 Q1832.627,318.317 1831.15,314.802 Q1829.674,311.286 1827.002,308.614 Q1824.33,305.942 1820.814,304.466 Q1817.299,302.989 1813.361,302.989 Q1809.424,302.989 1805.978,304.466 Q1802.533,305.942 1799.932,308.614 Q1797.33,311.286 1795.853,314.802 Q1794.377,318.317 1794.377,322.255 L1794.377,417.88 L1755.986,417.88 L1755.986,322.255 Q1755.986,318.317 1754.51,314.802 Q1753.033,311.286 1750.361,308.614 Q1747.689,305.942 1744.174,304.466 Q1740.658,302.989 1736.721,302.989 Q1732.783,302.989 1729.338,304.466 Q1725.892,305.942 1723.291,308.614 Q1720.689,311.286 1719.213,314.802 Q1717.736,318.317 1717.736,322.255 L1717.736,417.88 L1679.346,417.88 L1679.346,267.27 L1688.627,267.27 L1699.033,278.802 Q1707.049,272.052 1716.682,268.325 Q1726.314,264.598 1736.721,264.598 Q1747.267,264.598 1757.322,268.536 Q1767.377,272.473 1774.971,282.177 Q1778.486,277.395 1782.986,274.02 Q1787.486,270.645 1792.478,268.536 Q1797.471,266.427 1802.814,265.513 Q1808.158,264.598 1813.361,264.598 Q1825.314,264.598 1835.791,269.098 Q1846.267,273.598 1854.072,281.403 Q1861.877,289.208 1866.377,299.755 Q1870.877,310.302 1870.877,322.255 z" />
</svg>