<svg
	xmlns="http://www.w3.org/2000/svg" version="1.1" x="0" y="0" width="214" height="985" viewBox="50 0 214 985" style="background: #fff">
	<path d="M113 776L200 776C207 776 212 781 212 788L212 898C212 904 207 910 200 910L113 910C107 910 101 904 101 898L101 788C101 781 107 776 113 776zM101 733L101 884 50 884 101 733zM212 733L212 884 264 884 212 733z" fill="#343534"/>
	<path d="M117 274L196 274 196 419 117 419 117 274zM134 137L134 274 180 274 180 137 134 137z" fill="#343534"/>
	<path d="M123 985L88 934 123 884 191 884 225 934 191 985" fill="#343534"/>
	<path d="M157 0L157 137 134 137M180 137L157 137 157 0" fill="#343534"/>
	<path d="M101 464L72 557 101 557 101 464zM101 419L101 824 212 824 212 419 101 419zM212 464L212 557 241 557 212 464z" fill="#343534"/>
	<path d="M157 448C126 448 101 435 101 419 101 402 126 389 157 389 187 389 212 402 212 419 212 435 187 448 157 448z" fill="#343534"/>
</svg>